<svg xmlns="http://www.w3.org/2000/svg" viewBox="0 0 64 64" fill="none">
  <defs><linearGradient id="blue" x1="8" y1="0" x2="55" y2="64" gradientUnits="userSpaceOnUse"><stop stop-color="#6086ff"/><stop offset=".46" stop-color="#3c6cff"/><stop offset="1" stop-color="#3454e8"/></linearGradient><radialGradient id="light" cx="0" cy="0" r="1" gradientTransform="translate(12 5) rotate(65) scale(53 25)" gradientUnits="userSpaceOnUse"><stop stop-color="#fff" stop-opacity=".6"/><stop offset="1" stop-color="#fff" stop-opacity="0"/></radialGradient></defs>
  <rect x="1" y="1" width="62" height="62" rx="16" fill="url(#blue)"/>
  <rect x="1" y="1" width="62" height="62" rx="16" fill="url(#light)"/>
  <rect x="1" y="1" width="62" height="62" rx="16" stroke="#fff" stroke-opacity=".35"/>
  <rect x="8.0" y="20" width="4.6" height="24" rx="1.2" fill="#fff" opacity="0.28"/><rect x="14.1" y="20" width="4.6" height="24" rx="1.2" fill="#fff" opacity="0.38"/><rect x="20.2" y="20" width="4.6" height="24" rx="1.2" fill="#fff" opacity="0.48"/><rect x="26.3" y="20" width="4.6" height="24" rx="1.2" fill="#fff" opacity="0.58"/><rect x="32.4" y="20" width="4.6" height="24" rx="1.2" fill="#fff" opacity="0.68"/><rect x="38.5" y="20" width="4.6" height="24" rx="1.2" fill="#fff" opacity="0.78"/><rect x="44.6" y="20" width="4.6" height="24" rx="1.2" fill="#fff" opacity="0.9"/><rect x="50.7" y="20" width="4.6" height="24" rx="1.2" fill="#fff" opacity="1"/>
</svg>
